<svg xmlns="http://www.w3.org/2000/svg" version="1.1" xmlns:xlink="http://www.w3.org/1999/xlink" xmlns:svgjs="http://svgjs.dev/svgjs" width="1000" height="1000" viewBox="0 0 1000 1000"><rect width="1000" height="1000" fill="#ffffff"></rect><g transform="matrix(0.7,0,0,0.7,149.57576623016524,378.507683825184)"><svg viewBox="0 0 396 138" data-background-color="#ffffff" preserveAspectRatio="xMidYMid meet" height="348" width="1000" xmlns="http://www.w3.org/2000/svg" xmlns:xlink="http://www.w3.org/1999/xlink"><defs></defs><g id="tight-bounds" transform="matrix(1,0,0,1,0.23999510407793423,-0.17430364480870253)"><svg viewBox="0 0 395.52 138.3484982994627" height="138.3484982994627" width="395.52"><g><svg viewBox="0 0 652.7246358971983 228.31582013410434" height="138.3484982994627" width="395.52"><g transform="matrix(1,0,0,1,257.2046358971983,67.75794584838621)"><svg viewBox="0 0 395.52 92.7999284373319" height="92.7999284373319" width="395.52"><g><svg viewBox="0 0 395.52 92.7999284373319" height="92.7999284373319" width="395.52"><g><svg viewBox="0 0 395.52 61.185414364640884" height="61.185414364640884" width="395.52"><g transform="matrix(1,0,0,1,0,0)"><svg width="395.52" viewBox="1.350000023841858 -38.349998474121094 253.37998962402344 39.19999694824219" height="61.185414364640884" data-palette-color="#1c4b82"><path d="M30.3 0L26.2-11.05 10.4-11.05 6.35 0 1.35 0 15.6-38.35 21-38.35 35.3 0 30.3 0ZM12.05-15.4L24.55-15.4 18.3-32.3 12.05-15.4ZM63.9 0L54.15-16.05 46.8-16.05 46.8 0 41.95 0 41.95-37.9 55.2-37.9Q67.6-37.9 67.6-26.9L67.6-26.9Q67.6-22.55 65.52-19.88 63.45-17.2 59.3-16.4L59.3-16.4 69.45 0 63.9 0ZM46.8-33.65L46.8-20.3 55.2-20.3Q62.6-20.3 62.65-26.9L62.65-26.9Q62.65-30.4 60.8-32.02 58.95-33.65 55.2-33.65L55.2-33.65 46.8-33.65ZM101.6-37.9L101.6-33.55 90.2-33.55 90.2 0 85.3 0 85.3-33.55 73.9-33.55 73.9-37.9 101.6-37.9ZM133.89 0L129.79-11.05 113.99-11.05 109.94 0 104.94 0 119.19-38.35 124.59-38.35 138.89 0 133.89 0ZM115.64-15.4L128.14-15.4 121.89-32.3 115.64-15.4ZM175.24 0L169.54 0 158.79-16 148.04 0 142.34 0 155.84-19.5 143.24-37.9 148.89-37.9 158.84-23.15 168.74-37.9 174.39-37.9 161.79-19.5 175.24 0ZM204.54-4.35L211.04-4.35 211.04 0 193.29 0 193.29-4.35 199.74-4.35 199.74-29.35 194.29-29.35 194.29-33.7 204.54-33.7 204.54-4.35ZM220.23 0L220.23-8.05 225.43-8.05 225.43 0 220.23 0ZM243.68 0.85Q238.03 0.85 235.33-3.48 232.63-7.8 232.63-16.8L232.63-16.8Q232.63-25.65 235.36-30.03 238.08-34.4 243.68-34.4L243.68-34.4Q249.13-34.4 251.93-29.98 254.73-25.55 254.73-16.8L254.73-16.8Q254.73 0.85 243.68 0.85L243.68 0.85ZM243.68-3.4Q246.68-3.4 248.26-6.68 249.83-9.95 249.83-17.1L249.83-17.1Q249.83-23.7 248.21-26.93 246.58-30.15 243.68-30.15L243.68-30.15Q240.58-30.15 239.06-26.93 237.53-23.7 237.53-16.8L237.53-16.8Q237.53-9.75 239.03-6.58 240.53-3.4 243.68-3.4L243.68-3.4Z" opacity="1" transform="matrix(1,0,0,1,0,0)" fill="#000000" class="undefined-text-0" data-fill-palette-color="primary" id="text-0"></path></svg></g></svg></g><g transform="matrix(1,0,0,1,0,75.62982224618784)"><svg viewBox="0 0 395.52 17.170106191144058" height="17.170106191144058" width="395.52"><g transform="matrix(1,0,0,1,0,0)"><svg width="395.52" viewBox="4.300000190734863 -32.099998474121094 748.5599975585938 32.5" height="17.170106191144058" data-palette-color="#1c4b82"><path d="M15.55-4.15L23.3-4.4 23.6-3.95 23.25 0 4.3 0 4.65-9.65 4.3-32.1 23.35-32.1 23.65-31.65 23.25-27.7 15.65-27.9 9.55-27.85 9.4-18.5 15.2-18.4 20.5-18.55 20.85-18.15 20.45-14.2 14.8-14.35 9.35-14.25 9.3-10.1 9.45-4.2 15.55-4.15ZM49.2-25.05L40 0 34.25 0 25.8-25.05 30.7-25.05 31.4-21.9 37.1-4.55 37.35-4.55 43.75-21.65 44.45-25.05 49.2-25.05ZM63.5-3.8L70.25-4 70.59-3.65 70.2 0 54.15 0 54.35-7.5 54.15-25.05 70.34-25.05 70.65-24.65 70.3-21 63.95-21.25 58.95-21.2 58.85-14.7 63.65-14.65 68-14.8 68.25-14.4 67.95-10.7 63.25-10.85 58.8-10.8 58.75-7.95 58.85-3.85 63.5-3.8ZM89.29-10Q92.19-5.65 95.84-1.15L95.84-1.15 95.79-0.55Q93.19 0.2 91.24 0.35L91.24 0.35 90.49-0.1Q86.84-6 85.34-8.7L85.34-8.7 80.94-8.65 80.94-7.95 81.14 0 76.34 0 76.54-7.5 76.34-25.05 85.84-25.1Q89.89-25.1 92.12-23.18 94.34-21.25 94.34-17.75L94.34-17.75Q94.34-15.3 93.02-13.3 91.69-11.3 89.29-10L89.29-10ZM81.14-21.3L80.99-12.5 85.34-12.35Q89.29-13.5 89.29-17.3L89.29-17.3Q89.29-19.35 88.09-20.33 86.89-21.3 84.44-21.4L84.44-21.4 81.14-21.3ZM110.09-8.5L110.04-7 110.24 0 105.44 0 105.69-7 105.64-8.4 97.14-25.05 102.29-25.05 102.84-23.45 107.84-13.5 108.19-13.5 113.69-23.25 114.39-25.05 119.44-25.05 110.09-8.5ZM140.69-25.05L140.94-24.65 140.64-20.8 135.79-21.15 133.69-21.15 133.59-7.95 133.74 0 128.94 0 129.14-7.5 129.04-21.15 126.99-21.15 122.04-20.8 121.69-21.2 122.04-25.05 140.69-25.05ZM168.19-25.05L167.94-7.95 168.14 0 163.34 0 163.49-7.5 163.44-10.5 156.99-10.55 151.09-10.45 151.04-7.95 151.24 0 146.44 0 146.64-7.5 146.44-25.05 151.29-25.05 151.14-14.65 157.34-14.55 163.44-14.6 163.34-25.05 168.19-25.05ZM181.28-25.05L181.03-7.95 181.23 0 176.43 0 176.63-7.5 176.43-25.05 181.28-25.05ZM211.48-25.15L211.23-7.65 211.38 0 206.18 0 194.33-17.6 194.03-17.6 193.98-8.5 194.13 0 189.78 0 189.98-7.35 189.83-25.05 194.93-25.05 206.78-7.45 207.18-7.45 207.03-24.9 211.48-25.15ZM230.43-25.35Q234.33-25.35 238.33-23.8L238.33-23.8 236.88-19.25 236.38-19.25Q234.48-20.4 232.95-20.9 231.43-21.4 229.58-21.4L229.58-21.4Q225.68-21.4 223.83-19.23 221.98-17.05 221.98-12.2L221.98-12.2Q221.98-7.5 223.73-5.53 225.48-3.55 229.48-3.55L229.48-3.55Q230.53-3.55 231.48-3.75 232.43-3.95 233.83-4.45L233.83-4.45 233.83-6.55 233.78-10.3 238.18-10.6 238.13-7.3 238.13-1.2Q233.03 0.35 229.23 0.35L229.23 0.35Q223.13 0.35 220.03-2.85 216.93-6.05 216.93-12L216.93-12Q216.93-18.45 220.45-21.9 223.98-25.35 230.43-25.35L230.43-25.35ZM263.02-8.5L262.97-7 263.17 0 258.37 0 258.62-7 258.57-8.4 250.07-25.05 255.22-25.05 255.77-23.45 260.77-13.5 261.12-13.5 266.62-23.25 267.32-25.05 272.37-25.05 263.02-8.5ZM285.77-25.4Q291.27-25.4 294.3-22.18 297.32-18.95 297.32-13.1L297.32-13.1Q297.32-6.6 294.1-3.1 290.87 0.4 284.92 0.4L284.92 0.4Q279.37 0.4 276.37-2.9 273.37-6.2 273.37-12.25L273.37-12.25Q273.37-18.55 276.6-21.98 279.82-25.4 285.77-25.4L285.77-25.4ZM285.32-21.45Q281.72-21.45 280.05-19.43 278.37-17.4 278.37-12.85L278.37-12.85Q278.37-7.8 280.02-5.65 281.67-3.5 285.27-3.5L285.27-3.5Q288.92-3.5 290.62-5.53 292.32-7.55 292.32-12.15L292.32-12.15Q292.32-17.15 290.67-19.3 289.02-21.45 285.32-21.45L285.32-21.45ZM323.52-25.05L323.37-12.3 323.32-8.6Q323.37-4.35 320.62-2 317.87 0.35 312.82 0.35L312.82 0.35Q307.82 0.35 305.22-1.98 302.62-4.3 302.72-8.6L302.72-8.6 302.77-12.45 302.62-25.05 307.47-25.05 307.22-9.35Q307.17-3.65 313.02-3.65L313.02-3.65Q315.92-3.65 317.42-5.08 318.92-6.5 318.87-9.35L318.87-9.35 318.67-25.05 323.52-25.05ZM360.71-25.15L360.46-7.65 360.61 0 355.41 0 343.56-17.6 343.26-17.6 343.21-8.5 343.36 0 339.01 0 339.21-7.35 339.06-25.05 344.16-25.05 356.01-7.45 356.41-7.45 356.26-24.9 360.71-25.15ZM378.36-3.8L385.11-4 385.46-3.65 385.06 0 369.01 0 369.21-7.5 369.01-25.05 385.21-25.05 385.51-24.65 385.16-21 378.81-21.25 373.81-21.2 373.71-14.7 378.51-14.65 382.86-14.8 383.11-14.4 382.81-10.7 378.11-10.85 373.66-10.8 373.61-7.95 373.71-3.85 378.36-3.8ZM400.56-3.8L407.31-4 407.66-3.65 407.26 0 391.21 0 391.41-7.5 391.21-25.05 407.41-25.05 407.71-24.65 407.36-21 401.01-21.25 396.01-21.2 395.91-14.7 400.71-14.65 405.06-14.8 405.31-14.4 405.01-10.7 400.31-10.85 395.86-10.8 395.81-7.95 395.91-3.85 400.56-3.8ZM423.7-25.25Q429.45-25.25 432.53-22.2 435.61-19.15 435.61-13.45L435.61-13.45Q435.61-6.8 432.2-3.28 428.81 0.25 422.5 0.25L422.5 0.25Q417.75 0.25 413.4 0L413.4 0 413.61-7.5 413.4-25.05 423.7-25.25ZM423.31-3.5Q426.86-3.5 428.75-5.7 430.65-7.9 430.65-12.35L430.65-12.35Q430.65-17 428.86-19.13 427.06-21.25 423.36-21.25L423.36-21.25Q420.25-21.25 418.2-21.05L418.2-21.05 418-7.95 418.11-3.85Q421.86-3.5 423.31-3.5L423.31-3.5ZM454.6-25.05L454.35-7.95 454.55 0 449.75 0 449.95-7.5 449.75-25.05 454.6-25.05ZM484.8-25.15L484.55-7.65 484.7 0 479.5 0 467.65-17.6 467.35-17.6 467.3-8.5 467.45 0 463.1 0 463.3-7.35 463.15-25.05 468.25-25.05 480.1-7.45 480.5-7.45 480.35-24.9 484.8-25.15ZM508.19-25.3L508.94-24.75 508.64-10.35 508.89 0 503.74 0 504.04-9.8 503.99-19.5 497.89-17.8 497.44-18.1 497.44-22.15 508.19-25.3ZM520.29-5.4Q521.54-5.4 522.24-4.67 522.94-3.95 522.94-2.65L522.94-2.65Q522.94-1.3 522.19-0.5 521.44 0.3 520.14 0.3L520.14 0.3Q518.84 0.3 518.12-0.45 517.39-1.2 517.39-2.5L517.39-2.5Q517.39-3.8 518.16-4.6 518.94-5.4 520.29-5.4L520.29-5.4ZM539.44-25.4Q544.49-25.4 547.26-22.13 550.04-18.85 550.04-12.8L550.04-12.8Q550.04-6.5 547.11-3.05 544.19 0.4 538.79 0.4L538.79 0.4Q533.69 0.4 530.89-2.88 528.09-6.15 528.09-12.1L528.09-12.1Q528.09-18.45 531.06-21.93 534.04-25.4 539.44-25.4L539.44-25.4ZM539.04-20.7Q532.09-20.7 532.09-12.45L532.09-12.45Q532.09-4.1 539.09-4.1L539.09-4.1Q542.54-4.1 544.31-6.13 546.09-8.15 546.09-12.2L546.09-12.2Q546.09-16.45 544.29-18.57 542.49-20.7 539.04-20.7L539.04-20.7ZM573.83-25.1Q577.88-25.1 580.11-23.13 582.33-21.15 582.33-17.5L582.33-17.5Q582.33-13.2 579.48-10.73 576.63-8.25 571.78-8.25L571.78-8.25 568.93-8.25 568.93-7.95 569.13 0 564.33 0 564.53-7.5 564.33-25.05 573.83-25.1ZM572.98-11.85Q577.28-12.75 577.28-17.1L577.28-17.1Q577.28-19.25 576.08-20.3 574.88-21.35 572.38-21.45L572.38-21.45 569.13-21.35 568.98-11.95 572.98-11.85ZM602.03-4L602.33-3.6 601.98 0 588.08 0 588.28-7.5 588.08-25.05 592.98-25.05 592.73-7.95 592.78-4 602.03-4ZM619.28-25.05L627.73 0 622.88 0 622.23-3.1 621.33-5.85 615.73-5.9 610.73-5.85 609.78-3.35 609.08 0 604.33 0 613.68-25.05 619.28-25.05ZM616.08-9.55L620.08-9.6 616.53-20.55 616.18-20.55 612.13-9.6 616.08-9.55ZM646.97-25.05L647.22-24.65 646.92-20.8 642.07-21.15 639.97-21.15 639.87-7.95 640.02 0 635.22 0 635.42-7.5 635.32-21.15 633.27-21.15 628.32-20.8 627.97-21.2 628.32-25.05 646.97-25.05ZM661.42-21.25L657.27-21.2 657.17-14 661.17-13.95 665.62-14.1 665.97-13.7 665.62-10.05 660.77-10.15 657.12-10.1 657.07-7.95 657.27 0 652.47 0 652.67-7.5 652.47-25.05 667.77-25.05 668.07-24.65 667.67-21 661.42-21.25ZM682.67-25.4Q688.17-25.4 691.19-22.18 694.22-18.95 694.22-13.1L694.22-13.1Q694.22-6.6 690.99-3.1 687.77 0.4 681.82 0.4L681.82 0.4Q676.27 0.4 673.27-2.9 670.27-6.2 670.27-12.25L670.27-12.25Q670.27-18.55 673.49-21.98 676.72-25.4 682.67-25.4L682.67-25.4ZM682.22-21.45Q678.62-21.45 676.94-19.43 675.27-17.4 675.27-12.85L675.27-12.85Q675.27-7.8 676.92-5.65 678.57-3.5 682.17-3.5L682.17-3.5Q685.82-3.5 687.52-5.53 689.22-7.55 689.22-12.15L689.22-12.15Q689.22-17.15 687.57-19.3 685.92-21.45 682.22-21.45L682.22-21.45ZM713.17-10Q716.07-5.65 719.72-1.15L719.72-1.15 719.67-0.55Q717.07 0.2 715.12 0.35L715.12 0.35 714.37-0.1Q710.72-6 709.22-8.7L709.22-8.7 704.82-8.65 704.82-7.95 705.02 0 700.22 0 700.42-7.5 700.22-25.05 709.72-25.1Q713.77-25.1 715.99-23.18 718.22-21.25 718.22-17.75L718.22-17.75Q718.22-15.3 716.89-13.3 715.57-11.3 713.17-10L713.17-10ZM705.02-21.3L704.87-12.5 709.22-12.35Q713.17-13.5 713.17-17.3L713.17-17.3Q713.17-19.35 711.97-20.33 710.77-21.3 708.32-21.4L708.32-21.4 705.02-21.3ZM750.41-25.05L752.86 0 748.61 0 748.11-7.6 746.96-17.8 746.66-17.8 740.16-2.65 736.41-2.65 730.41-17.8 730.01-17.8 728.91-8.05 728.26 0 724.21 0 726.91-25.05 732.51-25.05 733.66-21.35 738.36-9 738.71-9 743.71-21.4 744.96-25.05 750.41-25.05Z" opacity="1" transform="matrix(1,0,0,1,0,0)" fill="#000000" class="undefined-text-1" data-fill-palette-color="secondary" id="text-1"></path></svg></g></svg></g></svg></g></svg></g><g><svg viewBox="0 0 228.31582013410434 228.31582013410434" height="228.31582013410434" width="228.31582013410434"><g><svg></svg></g><g id="icon-0"><svg viewBox="0 0 228.31582013410434 228.31582013410434" height="228.31582013410434" width="228.31582013410434"><g><path d="M0 114.158c0-63.048 51.11-114.158 114.158-114.158 63.048 0 114.158 51.11 114.158 114.158 0 63.048-51.11 114.158-114.158 114.158-63.048 0-114.158-51.11-114.158-114.158zM114.158 222.798c60 0 108.64-48.64 108.64-108.64 0-60-48.64-108.64-108.64-108.64-60 0-108.64 48.64-108.64 108.64 0 60 48.64 108.64 108.64 108.64z" data-fill-palette-color="accent" fill="#000000" stroke="transparent"></path></g><g transform="matrix(1,0,0,1,45.92731308286204,52.52099200674711)"><svg viewBox="0 0 136.46119396838026 123.27383612061013" height="123.27383612061013" width="136.46119396838026"><g><svg xmlns="http://www.w3.org/2000/svg" xmlns:xlink="http://www.w3.org/1999/xlink" version="1.1" x="0" y="0" viewBox="0 0 99.99979400634766 90.33599853515625" enable-background="new 0 0 100 90.336" xml:space="preserve" width="136.46119396838026" height="123.27383612061013" class="icon-x-0" data-fill-palette-color="accent" id="x-0"><path fill="#000000" d="M99.653 69.455l-9.922-15.887 6.179-1.761c0.858-0.246 1.497-0.968 1.634-1.851 0.136-0.883-0.253-1.764-0.997-2.257l-6.284-4.168C89.392 19.42 69.448 0 45.17 0 20.265 0 0 20.263 0 45.168c0 24.906 20.265 45.168 45.17 45.168 16.057 0 30.933-8.671 38.976-22.376l5.02 8.036c0.436 0.695 1.18 1.077 1.943 1.077 0.414 0 0.832-0.112 1.209-0.347l6.604-4.118c0.514-0.322 0.88-0.834 1.019-1.426C100.078 70.59 99.973 69.969 99.653 69.455zM48.518 11.768c2.925 0 6.242 0 6.816 0.463 0 0 0.002 0.007 0.007 0.022-0.702 0.751-3.24 2.021-4.798 2.8-3.949 1.976-7.359 3.681-7.359 6.622 0 1.787 1.314 3.032 2.585 4.236 1.379 1.308 2.802 2.657 2.829 4.508 0.027 2.045-1.613 4.782-4.744 7.915-1.741 1.741-3.285 3.643-2.789 5.759 0.521 2.226 2.764 2.981 5.363 3.855 3.645 1.227 8.638 2.907 12.374 8.507 3.334 5-8.897 19.57-19.134 28.887-2.66-0.362-5.234-0.977-7.706-1.83 2.031-6.396 1.401-8.168-1.922-12.144-1.063-1.274-2.389-2.86-3.996-5.27-3.904-5.859-0.353-9.811 4.322-14.01 0.57-0.512 1.08-0.972 1.493-1.383 0.628-0.628 6.067-6.287 4.012-11.241-1.354-3.263-5.191-4.85-11.73-4.85-2.677 0-4.587-0.809-5.841-2.474-3.12-4.141-1.79-12.784-0.829-16.563 5.598-5.242 12.658-8.914 20.513-10.326C39.658 7.71 43.22 11.768 48.518 11.768zM4.577 45.168c0-8.597 2.704-16.563 7.283-23.134-0.277 4.3 0.141 9.346 2.778 12.854 2.147 2.855 5.345 4.304 9.504 4.304 6.182 0 7.306 1.553 7.504 2.029 0.581 1.403-1.117 4.337-3.021 6.248-0.359 0.359-0.813 0.765-1.314 1.214-3.729 3.35-11.493 10.322-5.073 19.953 1.746 2.615 3.216 4.378 4.291 5.665 2.344 2.807 2.592 3.178 1.203 7.464C14.063 75.228 4.577 61.303 4.577 45.168zM45.941 85.73c8.005-7.772 22.249-23.444 16.669-31.813-4.604-6.903-10.938-9.033-14.722-10.307-0.67-0.226-1.446-0.487-1.991-0.713 0.23-0.302 0.599-0.733 1.193-1.327 4.141-4.144 6.129-7.811 6.083-11.214-0.051-3.781-2.581-6.18-4.254-7.766-0.282-0.269-0.628-0.597-0.885-0.867 0.928-0.762 3.145-1.87 4.557-2.576 3.944-1.974 7.353-3.677 7.353-6.615 0-5.341-5.042-5.341-11.424-5.341-2.101 0-3.848-1.211-5.133-2.525 0.597-0.024 1.182-0.089 1.785-0.089 20.682 0 37.885 15.679 40.288 35.769L70.407 30.36c-0.744-0.498-1.712-0.507-2.479-0.033-0.76 0.474-1.173 1.35-1.055 2.239l4.119 31.096c0.116 0.888 0.739 1.623 1.593 1.887 0.852 0.266 1.783 0.009 2.378-0.657l4.284-4.775 2.116 3.388C74.598 76.825 60.895 85.442 45.941 85.73zM91.836 71.634L81.519 55.11c-0.382-0.61-1.028-1.006-1.745-1.068-0.065-0.007-0.132-0.009-0.197-0.009-0.647 0-1.267 0.274-1.702 0.76l-2.997 3.341-2.805-21.179 17.807 11.813-4.327 1.233c-0.69 0.198-1.249 0.708-1.508 1.379-0.257 0.672-0.186 1.426 0.194 2.033l10.319 16.521L91.836 71.634z" data-fill-palette-color="accent"></path></svg></g></svg></g></svg></g></svg></g></svg></g></svg><rect width="395.52" height="138.3484982994627" fill="none" stroke="none" visibility="hidden"></rect></g></svg></g></svg>